<svg xmlns="http://www.w3.org/2000/svg" viewBox="0 0 64 64"><defs><style>.cls-1{fill:#fafafa;}</style></defs><title>Burger</title><g id="Burger"><path class="cls-1" d="M61.68,34.38a3.13,3.13,0,0,0,.12-2.5,3,3,0,0,0,0-5.75A5,5,0,0,0,63,22.93,20,20,0,0,0,43.07,3H20.93A20,20,0,0,0,1,22.93a5,5,0,0,0,1.17,3.2,3,3,0,0,0,0,5.75,3.12,3.12,0,0,0,.12,2.5A4,4,0,0,0,0,38c0,2-.2,3.21,1,4.58a2.58,2.58,0,0,0,1.17,4.56A3.09,3.09,0,0,0,2,48,13,13,0,0,0,15,61H49A13,13,0,0,0,62,48c0-.82-.27-.84,0-.89A2.58,2.58,0,0,0,63,42.58C64.2,41.21,64,40,64,38A4,4,0,0,0,61.68,34.38Zm-18.07-.3c-.26.11.07-.17-4.93,4.82C15.79,33.7,17.17,34,17,34H4.93a1,1,0,0,1,0-2H59.07a1,1,0,0,1,0,2C42.78,34,43.89,34,43.61,34.08ZM20.93,5H43.07A18,18,0,0,1,61,22.93,3.08,3.08,0,0,1,57.93,26H6.07A3.08,3.08,0,0,1,3,22.93,18,18,0,0,1,20.93,5ZM3,28H61a1,1,0,0,1,0,2H3A1,1,0,0,1,3,28ZM2,38a2,2,0,0,1,2-2H16.89l21.89,5c.73.16.5.15,5.63-5H60a2,2,0,0,1,2,2v2a2,2,0,0,1-2,2H4a2,2,0,0,1-2-2ZM49,59H15A11,11,0,0,1,4,48.12,5.58,5.58,0,0,0,7.19,49c3.38,0,3.59-2,6.2-2s2.83,2,6.2,2,3.59-2,6.2-2,2.83,2,6.2,2,3.59-2,6.2-2,2.78,2,6.19,2,3.62-2,6.21-2,2.83,2,6.2,2a5.71,5.71,0,0,0,3.2-.88A11,11,0,0,1,49,59ZM61.5,45.16c-2.22.53-2.41,1.84-4.71,1.84-2.6,0-2.83-2-6.2-2s-3.6,2-6.21,2-2.82-2-6.19-2S34.6,47,32,47s-2.83-2-6.2-2-3.59,2-6.2,2-2.8-2-6.2-2-3.59,2-6.2,2C4.91,47,4.7,45.68,2.5,45.16A.58.58,0,0,1,2.58,44H61.42A.58.58,0,0,1,61.5,45.16Z"/><path class="cls-1" d="M32,10a1,1,0,0,0,0-2A1,1,0,0,0,32,10Z"/><path class="cls-1" d="M28,17a1,1,0,0,0,0-2A1,1,0,0,0,28,17Z"/><path class="cls-1" d="M20,17a1,1,0,0,0,0-2A1,1,0,0,0,20,17Z"/><path class="cls-1" d="M12,17a1,1,0,0,0,0-2A1,1,0,0,0,12,17Z"/><path class="cls-1" d="M36,17a1,1,0,0,0,0-2A1,1,0,0,0,36,17Z"/><path class="cls-1" d="M44,17a1,1,0,0,0,0-2A1,1,0,0,0,44,17Z"/><path class="cls-1" d="M52,17a1,1,0,0,0,0-2A1,1,0,0,0,52,17Z"/><path class="cls-1" d="M24,10a1,1,0,0,0,0-2A1,1,0,0,0,24,10Z"/><path class="cls-1" d="M16,10a1,1,0,0,0,0-2A1,1,0,0,0,16,10Z"/><path class="cls-1" d="M40,10a1,1,0,0,0,0-2A1,1,0,0,0,40,10Z"/><path class="cls-1" d="M48,10a1,1,0,0,0,0-2A1,1,0,0,0,48,10Z"/></g></svg>