<svg xmlns="http://www.w3.org/2000/svg" viewBox="0 0 64 64"><defs><style>.cls-1{fill:#231f20;}</style></defs><title>Croissant</title><g id="Croissant"><path class="cls-1" d="M57,30.47c-.42-5.45-7.08-7.72-9.14-8.29C46,15.78,38,15,32,15s-14,.78-15.81,7.18c-2.06.57-8.72,2.84-9.14,8.29C5.54,31.67,0,36.57,0,44c0,4.65,1.35,7,4,7,3.55,0,6.2-5.8,12.7-6A5.82,5.82,0,0,0,20,46c4.67,0,6.61-1.3,7.42-2.42a8.09,8.09,0,0,0,9.16,0C37.39,44.7,39.33,46,44,46a5.82,5.82,0,0,0,3.3-1c6.48.18,9.16,6,12.7,6,2.65,0,4-2.35,4-7C64,36.57,58.46,31.67,57,30.47ZM7.19,47.14C5.93,48.14,4.84,49,4,49c-1.33,0-2-1.68-2-5,0-6.32,4.78-10.72,6.19-11.88,2.64,1.11,3.79,7.45,6.61,11.09A17,17,0,0,0,7.19,47.14ZM20,44c-5.84,0-6.1-11.59-10.95-13.71.61-4,6.22-5.78,7.77-6.21,3.08,2.13,7.83,14.29,9.15,18C25.8,42.53,24.88,44,20,44Zm7.86-2.57C26.28,37,21.8,25.49,18.14,22.56,19.29,18.72,23.61,17,32,17s12.71,1.72,13.86,5.56C42.2,25.49,37.71,37,36.14,41.43A6.25,6.25,0,0,1,27.86,41.43ZM38,42.09c1.27-3.56,6-15.86,9.15-18,1.55.43,7.16,2.24,7.77,6.21C50.09,32.42,49.83,44,44,44,39.06,44,38.18,42.49,38,42.09ZM60,49c-.84,0-1.93-.86-3.19-1.86a17,17,0,0,0-7.61-3.93c2.82-3.63,4-10,6.61-11.09C57.22,33.28,62,37.68,62,44,62,47.32,61.33,49,60,49Z"/></g></svg>