<svg xmlns="http://www.w3.org/2000/svg" viewBox="0 0 64 64"><title>Product</title><g id="Product"><path d="M63.84,36.46c-7.45-11.71-7-11.12-7.35-11.32s1-.08-23.49-1.1V18h5.74A12.81,12.81,0,0,0,51.53,5.21V3.53a1,1,0,0,0-1-1H43.79A12.79,12.79,0,0,0,32.51,9.31,12.81,12.81,0,0,0,20.21,0H13.47a1,1,0,0,0-1,1V2.68A12.8,12.8,0,0,0,25.26,15.47H31V24c-24.85,1-23.44.79-23.84,1.42C-.35,37.26-.22,36.71.08,37.4s.27.5,6.92,1.66V58a1,1,0,0,0,.8,1c25.67,5.35,24,5,24.2,5s-1.54.34,24.2-5a1,1,0,0,0,.8-1V39.06c6.66-1.16,6.62-1,6.92-1.66A1,1,0,0,0,63.84,36.46ZM43.79,4.53h5.74C49.53,11.92,44.15,16,38.74,16H33.89c1.69-2.3,5.25-6.42,9.06-6.42a1,1,0,0,0,1-1c0-2.15-5.69-1.21-10.82,5.12A10.81,10.81,0,0,1,43.79,4.53ZM14.47,2h5.74a10.81,10.81,0,0,1,10.66,9.18c-2.12-2.62-5.72-6.13-9.82-6.13a1,1,0,0,0,0,2c3.81,0,7.37,4.12,9.06,6.42H25.26C19.79,13.47,14.47,9.33,14.47,2ZM8.56,27l21.79-.91L23.44,39.89,2.65,36.27ZM9,39.41C25.06,42.2,23.87,42,24,42c.87,0,.46.31,7-12.76V61.77L9,57.19ZM55,57.19,33,61.77V29.24C39.5,42.24,39.12,42,40,42c.13,0-.72.14,15-2.59ZM40.56,39.89,33.65,26.07,55.44,27l5.91,9.29Z"/></g></svg>