<svg xmlns="http://www.w3.org/2000/svg" viewBox="0 0 64 64"><defs><style>.cls-1{fill:#231f20;}</style></defs><title>Salt Paper</title><g id="Salt_Paper" data-name="Salt Paper"><path class="cls-1" d="M64,51.6,60.37,22A6,6,0,0,0,57,17.33V17a1,1,0,0,0,1-1v-.59a2.37,2.37,0,0,1,.71-1.7c.39-.39.29-.66.29-2.71a5,5,0,0,0-5-5H44a5,5,0,0,0-5,5v2c0,.81,1,.95,1,2.41V16a1,1,0,0,0,1,1v.33A6,6,0,0,0,37.63,22C33.79,53.63,34,51.77,34,52.29A5.72,5.72,0,0,0,39.72,58H58.28A5.73,5.73,0,0,0,64,51.6ZM41,11a3,3,0,0,1,3-3H54a3,3,0,0,1,3,3v1.62A4.8,4.8,0,0,0,56,15H42a4.34,4.34,0,0,0-1-2.38ZM58.28,56H39.72A3.72,3.72,0,0,1,36,52.29c0-.35-.22,1.59,3.61-30A4,4,0,0,1,42.32,19c.81-.27.68-1,.68-1.95H55c0,1.06-.11,1.68.68,1.95a4,4,0,0,1,2.71,3.31L62,51.84A3.71,3.71,0,0,1,58.28,56Z"/><path class="cls-1" d="M58.15,36.88a1,1,0,0,0-1-.88H40.85a1,1,0,0,0-1,.88L38,52.17A1.71,1.71,0,0,0,39.72,54H58.28A1.75,1.75,0,0,0,60,52.2C60,52.1,60.11,53.05,58.15,36.88ZM40,52l1.7-14H56.27L58,52Z"/><path class="cls-1" d="M44,11a1,1,0,0,0,0-2A1,1,0,0,0,44,11Z"/><path class="cls-1" d="M49,11a1,1,0,0,0,0-2A1,1,0,0,0,49,11Z"/><path class="cls-1" d="M54,11a1,1,0,0,0,0-2A1,1,0,0,0,54,11Z"/><path class="cls-1" d="M26.37,22A6,6,0,0,0,23,17.33V17a1,1,0,0,0,1-1v-.59c0-1.45,1-1.6,1-2.41V11a5,5,0,0,0-5-5H10a5,5,0,0,0-5,5c0,2.19-.08,2.34.29,2.71A2.37,2.37,0,0,1,6,15.41V16a1,1,0,0,0,1,1v.33A6,6,0,0,0,3.63,22L0,51.6A5.73,5.73,0,0,0,5.72,58H24.28A5.72,5.72,0,0,0,30,52.29C30,51.78,30.21,53.66,26.37,22ZM7,11a3,3,0,0,1,3-3H20a3,3,0,0,1,3,3v1.62A4.8,4.8,0,0,0,22,15H8a4.34,4.34,0,0,0-1-2.38ZM24.28,56H5.72A3.72,3.72,0,0,1,2,52.29c0-.35-.22,1.59,3.61-30A4,4,0,0,1,8.32,19c.81-.27.68-1,.68-1.95H21c0,1.06-.11,1.68.68,1.95a4,4,0,0,1,2.71,3.31L28,51.84A3.71,3.71,0,0,1,24.28,56Z"/><path class="cls-1" d="M24.15,36.88a1,1,0,0,0-1-.88H6.85a1,1,0,0,0-1,.88L4,52.17A1.71,1.71,0,0,0,5.72,54H24.28A1.75,1.75,0,0,0,26,52.2C26,52.1,26.11,53.05,24.15,36.88ZM6,52l1.7-14H22.27L24,52Z"/><path class="cls-1" d="M10,11a1,1,0,0,0,0-2A1,1,0,0,0,10,11Z"/><path class="cls-1" d="M15,11a1,1,0,0,0,0-2A1,1,0,0,0,15,11Z"/><path class="cls-1" d="M20,11a1,1,0,0,0,0-2A1,1,0,0,0,20,11Z"/></g></svg>