<svg xmlns="http://www.w3.org/2000/svg" viewBox="0 0 64 64"><defs><style>.cls-1{fill:#231f20;}</style></defs><title>Tea</title><g id="Tea"><path class="cls-1" d="M61,57H44.81a30.1,30.1,0,0,0,2.49-2.58c6-2.83,16.7-8,16.7-18.42,0-4.38-1.87-7-5-7a6.7,6.7,0,0,0-4,1.31V26a1,1,0,0,0-1-1H6a1,1,0,0,0-1,1c0,7.6-1.25,20.5,10.19,31H1a1,1,0,0,0-1,1v1a1,1,0,0,0,.87,1l14.47,1.93c.8,1.59.9,2.08,1.66,2.08,30.44,0,28.5.24,28.89-.55l.77-1.53L61.13,60c1-.13.87-1.09.87-2A1,1,0,0,0,61,57ZM59,31c2.71,0,3,3.5,3,5,0,7.5-6.49,12-12.11,14.92A32.56,32.56,0,0,0,55,33.28,4.53,4.53,0,0,1,59,31ZM7,33V27H21v8a1,1,0,0,0-.55.17C17.26,37.29,17,37.3,17,38v9a1,1,0,0,0,1,1h8a1,1,0,0,0,1-1c0-9.49.19-9.41-.45-9.83C23.77,35.31,23.48,35,23,35V27H53v6A30.21,30.21,0,0,1,41.68,57H18.32A30.21,30.21,0,0,1,7,33Zm14.3,4h1.4L25,38.54V46H19V38.54ZM45.87,60c-.69.09-.8.61-1.49,2H17.62l-.73-1.45c-.32-.65-.29-.48-8.32-1.55C63.59,59,56.76,58.56,45.87,60Z"/><path class="cls-1" d="M28.79,19.56a1,1,0,0,0,1.65-1.12c-2.56-3.78-1.26-5.48.4-7.64,1.78-2.32,4-5.21-.46-10.45a1,1,0,0,0-1.52,1.3c3.4,4,2.14,5.65.39,7.93S25.41,14.59,28.79,19.56Z"/><path class="cls-1" d="M39.79,22.56a1,1,0,0,0,1.65-1.12c-2.56-3.78-1.26-5.48.4-7.64,1.78-2.32,4-5.21-.46-10.45a1,1,0,0,0-1.52,1.3c3.4,4,2.14,5.65.39,7.93S36.41,17.59,39.79,22.56Z"/><path class="cls-1" d="M17.79,22.56a1,1,0,0,0,1.65-1.12c-2.56-3.78-1.26-5.48.4-7.64,1.78-2.32,4-5.21-.46-10.45a1,1,0,0,0-1.52,1.3c3.4,4,2.14,5.65.39,7.93S14.41,17.59,17.79,22.56Z"/></g></svg>