<svg xmlns="http://www.w3.org/2000/svg" viewBox="0 0 64 64"><defs><style>.cls-1{fill:#231f20;}</style></defs><title>Breackfast</title><g id="Breackfast"><path class="cls-1" d="M32,0A32,32,0,1,0,64,32,32,32,0,0,0,32,0Zm0,62A30,30,0,1,1,62,32,30,30,0,0,1,32,62Z"/><path class="cls-1" d="M21,26a7,7,0,1,0,7,7A7,7,0,0,0,21,26Zm0,12a5,5,0,1,1,5-5A5,5,0,0,1,21,38Z"/><path class="cls-1" d="M56,27.82a4,4,0,0,0-3.48-4A20.24,20.24,0,0,1,50,23.41,19.87,19.87,0,0,0,38.41,13.08c-.07-.25-.14-.51-.19-.77a4,4,0,0,0-7.83-.21,20,20,0,0,0-13.21,6.5C11.43,20.49,8,26.79,8,36,8,50.91,22.14,55.37,31.08,52A19.88,19.88,0,0,0,49.42,41.78a4,4,0,0,0,2.43-7.51A15.65,15.65,0,0,0,52,31.82,4,4,0,0,0,56,27.82Zm-8.73-5.3a15.33,15.33,0,0,1-7.91-6.93A17.74,17.74,0,0,1,47.27,22.52ZM30.43,14.1A20,20,0,0,0,32.13,19a3.91,3.91,0,0,0-3.34,2.06c-2-2.44-5-3.13-8.08-3.06A18,18,0,0,1,30.43,14.1ZM10,36c0-9.87,4.21-16,11-16,5.54,0,6.79,2.59,7.71,5.29a26.11,26.11,0,0,1,1.55,7.11c.23,2.44.4,4.21,3.12,6.38C37.78,42.3,35.84,51,25,51,18.08,51,10,47.07,10,36ZM34.67,49.8a8.27,8.27,0,0,0,0-12.58c-2-1.59-2.16-2.7-2.36-4.8a24.9,24.9,0,0,0,15,9A17.89,17.89,0,0,1,34.67,49.8ZM51.33,39.31a2,2,0,0,1-1.58.5C40.21,38.68,32,32.4,30.32,23.4a2,2,0,0,1,2-2.4,2.09,2.09,0,0,1,2,1.69c1.33,6.92,7.78,12.2,16,13.16A2,2,0,0,1,51.33,39.31ZM50,31.56a11.61,11.61,0,0,1-.08,2.21C44.32,33,39.75,30,37.51,25.85A26,26,0,0,0,50,31.56Zm3.35-2.25a2,2,0,0,1-1.58.5C41.11,28.56,33.83,21.42,32.32,13.4a2,2,0,1,1,3.94-.71c1.43,7.41,8.41,12.28,16,13.16A2,2,0,0,1,53.33,29.31Z"/></g></svg>