<svg xmlns="http://www.w3.org/2000/svg" viewBox="0 0 64 64"><title>Eco Bulb</title><g id="Eco_Bulb" data-name="Eco Bulb"><path d="M47.14,6C33.34-7.06,10.23,2.47,10,21.73a22.07,22.07,0,0,0,7.08,16.44A12.09,12.09,0,0,1,21,47v2a1,1,0,1,0,0,2v2a1,1,0,1,0,0,2,5,5,0,0,0,5,5h2a4,4,0,0,0,8,0h2a5,5,0,0,0,4.59-3L43,57a1,1,0,0,0,.09-2c-.13,0-.09.29-.09-2a1,1,0,0,0,0-2c0-4.27-.57-8.67,3.94-12.85A22,22,0,0,0,47.14,6ZM32,62a2,2,0,0,1-2-2h4A2,2,0,0,1,32,62Zm6-4H26a3,3,0,0,1-3-2.81l17.39,1.58A3,3,0,0,1,38,58ZM23,53.18v-2l18,1.63v2Zm0-4V48H41v2.81ZM39.34,25.25l-6.26,5.47A10,10,0,0,1,43,22h2a10,10,0,0,1-10,10c-.55,0-1.3.8,5.61-5.25A1,1,0,0,0,39.34,25.25Zm-16-1.5C30.25,29.79,29.49,29,29,29A10,10,0,0,1,19,19h2.05a10,10,0,0,1,9.87,8.72l-6.26-5.47A1,1,0,0,0,23.34,23.75ZM45.58,36.68A14.18,14.18,0,0,0,41,46H34a1,1,0,0,1-1-1V34h2A12,12,0,0,0,47,22.05V21a1,1,0,0,0-1-1H43a11.94,11.94,0,0,0-10.34,6,12,12,0,0,0-11.56-9H18a1,1,0,0,0-1,1v1.05A12,12,0,0,0,29,31H31V45a1,1,0,0,1-1,1H23a14.11,14.11,0,0,0-4.52-9.3C5.34,24.61,13.68,2.93,30.92,2,49.76,1,59.15,24.12,45.58,36.68Z"/></g></svg>