<svg xmlns="http://www.w3.org/2000/svg" viewBox="0 0 64 64"><defs><style>.cls-1{fill:#231f20;}</style></defs><title>Clutery</title><g id="Clutery"><path class="cls-1" d="M53,21c-6,0-9.31,14.55-1,15.91V42c0,5.67-2,14-2,17,0,4.64,2.3,5,3,5s3-.36,3-5c0-3.09-2-11.13-2-17V36.91C62.32,35.55,59,21,53,21Zm0,2c3.89,0,6.59,12,0,12S49.06,23,53,23Zm.27,30.36A46.06,46.06,0,0,1,54,59c0,4-2,4-2,0a46.06,46.06,0,0,1,.73-5.64C53.09,51.15,52.91,51.15,53.27,53.36Z"/><path class="cls-1" d="M37,4c-7.82,0-12.37,19.34-1.8,21.79,1.15.78.8,3.16.8,11.21,0,13-5.19,27,1,27s1-14,1-27c0-8.32-.29-10.47.8-11.21C49.38,23.34,44.81,4,37,4Zm.26,47A61.76,61.76,0,0,1,38,58c0,3.36-.16,4-1,4s-1-.64-1-4a61.76,61.76,0,0,1,.74-7C37.09,48.41,36.91,48.41,37.26,51ZM37,24c-9.75,0-6-18,0-18S46.67,24,37,24Z"/><path class="cls-1" d="M17,29.72a4.66,4.66,0,0,0,2.55,4.17A2.63,2.63,0,0,1,21,36.26c-.15,17-2,17.61-2,21.74,0,7.48,7,7.74,7,2,0-27.32-.2-27.38,1-59C27.09-1.44,17.23-2.48,17,29.72ZM24,60c0,3.33-3,2.39-3-2,0-3.8,1.84-4.68,2-21.72a4.65,4.65,0,0,0-2.55-4.18A2.63,2.63,0,0,1,19,29.73c0-5.51,1.13-24.83,6-27.45C23.78,34.46,24,30.61,24,60Z"/><path class="cls-1" d="M13,5c0,15.32.05,14.19-.13,14.5A1,1,0,0,1,11,19V5A1,1,0,0,0,9,5V19a1,1,0,0,1-1.87.49C7,19.19,7,20.29,7,5A1,1,0,0,0,5,5c0,17.66-.41,17.64,1.47,19.54a5,5,0,0,0,1.36.94.86.86,0,0,0,.31.26c1.2.64.86,3,.86,11.26,0,13-5.19,27,1,27s1-14,1-27c0-8.55-.29-10.65.86-11.26a.86.86,0,0,0,.31-.26A5,5,0,0,0,15,21V5A1,1,0,0,0,13,5ZM10,21.22a2.94,2.94,0,0,0,2.86.65,3,3,0,0,1-5.72,0A3,3,0,0,0,10,21.22ZM10.26,51A61.76,61.76,0,0,1,11,58c0,3.36-.16,4-1,4s-1-.64-1-4a61.76,61.76,0,0,1,.74-7C10.09,48.41,9.91,48.41,10.26,51Z"/></g></svg>