<svg xmlns="http://www.w3.org/2000/svg" viewBox="0 0 64 64"><title>Love</title><g id="Love"><path d="M64,24C64,7.27,44-1.13,32,10.16,20-1.13,0,7.28,0,24,0,45.4,30.27,58.36,31.61,58.92a1,1,0,0,0,.78,0C33.73,58.36,64,45.4,64,24ZM45,28c-5.07,0-9.52,4.62-11.94,7.74A13,13,0,0,1,46,24h7v1A13,13,0,0,1,40,38H33.88c1.93-2.69,6.35-8,11.12-8A1,1,0,0,0,45,28ZM19,27c4.77,0,9.19,5.31,11.12,8H24A13,13,0,0,1,11,22V21h7A13,13,0,0,1,30.94,32.74C28.52,29.62,24.07,25,19,25A1,1,0,0,0,19,27ZM33,56.45V40h7A15,15,0,0,0,55,25V23a1,1,0,0,0-1-1H46a15,15,0,0,0-13.45,8.41A15,15,0,0,0,18,19H10a1,1,0,0,0-1,1v2A15,15,0,0,0,24,37h7V56.45C25.06,53.63,2,41.59,2,24,2,8.65,20.75,1.25,31.28,12.26a1,1,0,0,0,1.44,0C43.25,1.26,62,8.63,62,24,62,41.59,38.94,53.63,33,56.45Z"/></g></svg>