<svg xmlns="http://www.w3.org/2000/svg" viewBox="0 0 64 64"><title>Recycle</title><g id="Recycle"><path d="M62.4,32.32l-3.19-5.53L62,25.19a1,1,0,0,0-.2-1.82l-5.57-1.76C42.81-1.6,46.34.49,26.72.49A11.72,11.72,0,0,0,16.6,6.33l-4.49,7.79C9.6,12.67,9,12,8.24,12.57s-.47.64.88,6.75c-10.12,17.5-7,12.3-7.65,13.23-2.12,4.24-1.86,8,0,11.22C2.17,45,2.6,45.7,7,53.34a11.7,11.7,0,0,0,10.18,6h7.51c0,3-.22,3.76.6,4.12s.78.1,5.38-4.12H47.1A11.23,11.23,0,0,0,57,53.38C65.15,39.19,61.4,45.86,62.4,44A11.89,11.89,0,0,0,62.4,32.32ZM45.45,18.22a1,1,0,0,0-1.28.73l-1.79,8.11c-10.42-18-9.27-15.69-9-16.31A9.26,9.26,0,0,1,44.52,6.82c1.52.57.51-.59,8.88,13.9ZM26.37,38.63a1,1,0,0,0-1.68.73v3.21H15l8.6-14.9,5.58-1.77a1,1,0,0,0,.2-1.82l-2.78-1.6L32,13.12,41.74,30l-1.28,5.71a1,1,0,0,0,1.48,1.09l2.78-1.61L49,42.57H30.67ZM9.76,22.21c1.91,8.57,1.7,8.8,2.69,8.89.31,0-.47.24,8.33-2.54l-8.08,14a9.74,9.74,0,0,1-9.35-9.26ZM12,16.35A1,1,0,0,0,13.35,16l5-8.65a9.68,9.68,0,0,1,8.38-4.84c10.9,0,13.2-.57,16.43,1.9A11.34,11.34,0,0,0,31.58,9.83c-7.84,13.6-7.47,12.71-7.32,13.28s.44.59,2.14,1.57L13.28,28.82c-4.08-18.4-2.43-10.93-3-13.44ZM25.69,57.3H17.18A9.71,9.71,0,0,1,8.8,52.46h0C4.75,44.63,1.37,41.87,2.06,36.89a11.77,11.77,0,0,0,11,7.68H25.69a1,1,0,0,0,1-1V41.64l10.14,9.3L26.69,60.23V58.3A1,1,0,0,0,25.69,57.3Zm21.11,0H32.85L39,51.67a1,1,0,0,0,0-1.47l-6.14-5.63H50.14A9.64,9.64,0,0,1,46.8,57.3ZM60.63,43.07c-6.05,10.41-6.35,12-10,13.53a11.64,11.64,0,0,0,1.16-13.25c0-.11.17.29-5.8-10.06a1,1,0,0,0-1.37-.37l-1.68,1c1.05-4.71-.3,1.38,3-13.44L59,24.59c-3.21,1.85-3,.7,1.65,8.73a9.68,9.68,0,0,1,0,9.68C61.82,43.67,61.83,43.64,60.63,43.07Z"/></g></svg>