<svg xmlns="http://www.w3.org/2000/svg" viewBox="0 0 64 64"><defs><style>.cls-1{fill:#fafafa;}</style></defs><title>Sald</title><g id="Sald"><path class="cls-1" d="M64,26a1,1,0,0,0-1-1H60.92c2.95-4.86,3.16-12-.92-12-2.09,0-2.34.84-3,1-.63-1.09-.84-5-4-5a2.33,2.33,0,0,0-2.17,1.42C49.17,13.38,49.28,5,45,5c-1.3,0-1.91,1.35-2.56,2.78C42.12,8.5,41.44,10,41,10c-1.34,0-1.74-2.08-4-2-1.61.06-2.43,1-3.85,3C28.72,5.53,23.28,6,19,6a1,1,0,0,0-1,1v3.19c-1.4-.26-1.71-.19-8-.19a1,1,0,0,0-1,1,10.89,10.89,0,0,0,2.7,7.19,5.05,5.05,0,0,0-3.4,3.12A5,5,0,0,0,5.12,25H1a1,1,0,0,0-1,1A29,29,0,0,0,20,53.56V58a1,1,0,0,0,1,1H43a1,1,0,0,0,1-1V53.56A29,29,0,0,0,64,26Zm-9.22-1a4.37,4.37,0,0,0-3.23-2.23,4,4,0,0,0-1.69-1.38,10,10,0,0,0-1.57-4A6.47,6.47,0,0,1,56.8,25ZM14.14,25a4,4,0,0,1,5.93-2.41,6,6,0,0,0-1,2.41Zm14.72,0H21.14A4,4,0,0,1,28.86,25Zm2.05,0A6.05,6.05,0,0,0,30,22.7a1,1,0,0,0,.27-.19,4.57,4.57,0,0,1,4.32-.66,1,1,0,0,0,.92-.15,5.06,5.06,0,0,1,5,0c.67.51,1-.1,2.5-.1,2.7,0,2.5,1.27,3.52,1.23l.48,0c1.54,0,2.73.63,3,1.22.31.82.93.49,2,1ZM47.7,20.83a8.43,8.43,0,0,0-.87,0,6.68,6.68,0,0,0-5.57-1,7.24,7.24,0,0,0-6.45,0,5.18,5.18,0,0,0-1.48-1.2A8,8,0,0,1,47.7,20.83ZM37,10c1.23,0,1.55,2,4,2s3.25-4.09,4.11-5c2.06.23,2,6,4.89,6,2.43,0,2.43-2,3-2,2,0,1.29,5.35,4.13,5,1.66-.21,1.27-1,2.87-1s1.68,5.21-1,9.35A8.48,8.48,0,0,0,47,15.8,9.93,9.93,0,0,0,35,14.35a13.23,13.23,0,0,0-.72-1.52C35.89,10.49,36.29,10,37,10ZM20,8h2.72a11.34,11.34,0,0,1,10.64,7.55,10.18,10.18,0,0,0-2,2.47L31,18a5,5,0,0,0-5.64-1.7,4.87,4.87,0,0,0-4.41-1.17C19.83,12.57,20,10.85,20,8Zm-1.91,4.27a13.39,13.39,0,0,0,1,3.69,4.83,4.83,0,0,0-.45.34,5,5,0,0,0-5,1A8.88,8.88,0,0,1,11.06,12C16.26,12,16.6,11.91,18.09,12.27ZM9.33,23.09a1,1,0,0,0,.76-.76A3,3,0,0,1,13,20c.22,0,1,.26,1.4-.46a3,3,0,0,1,4-1.16C19.73,19.09,19.74,17,22,17s2.32,2.06,3.58,1.38a3,3,0,0,1,4,1.16,1,1,0,0,0,1,.5,5,5,0,0,0-1.39.76,7.34,7.34,0,0,0-1.07.06,6,6,0,0,0-6.6.27A6,6,0,0,0,12.09,25H7.18A3,3,0,0,1,9.33,23.09ZM42,57H22V54.14c4.24,1.06,6.93.86,13,.86a28.86,28.86,0,0,0,7-.86Zm-7-4H29A27,27,0,0,1,2,27H62A27,27,0,0,1,35,53Z"/></g></svg>