<svg xmlns="http://www.w3.org/2000/svg" viewBox="0 0 64 64"><defs><style>.cls-1{fill:#231f20;}</style></defs><title>Sausage</title><g id="Sausage"><path class="cls-1" d="M62.22,19c-.14-.16-.95-.86-2.84-2.54a3.07,3.07,0,0,0-1.32-.64,6,6,0,0,0-2.35-5.87A41.89,41.89,0,0,0,40,2.85V1a1,1,0,0,0-2,0V2.48a37.73,37.73,0,0,0-12,0V1a1,1,0,0,0-2,0V2.85A42.12,42.12,0,0,0,8.29,9.93a5.92,5.92,0,0,0-2.37,5.79,3,3,0,0,0-1.33.63A30,30,0,0,0,1.76,19a1,1,0,0,0,.09,1.39l3,2.7A1,1,0,0,0,6.22,23c1.86-1.93,2.37-1.92,2.92-2.91a6,6,0,0,0,6.18-.46,31.06,31.06,0,0,1,8.78-4.43,8,8,0,0,0,6.9,6.7V40.18A3,3,0,0,0,29,43V61a3,3,0,0,0,6,0V43a3,3,0,0,0-2-2.82V21.93a8,8,0,0,0,6.9-6.7,31.2,31.2,0,0,1,8.78,4.43,5.88,5.88,0,0,0,6.17.46c.58,1,1.1,1,3,2.94a1,1,0,0,0,1.37,0l3-2.7A1,1,0,0,0,62.22,19ZM5.45,21,4,19.61c1.88-1.84,2.17-2,2.62-1.95C7.64,19.58,8.29,18.28,5.45,21ZM33,61a1,1,0,0,1-2,0V43a1,1,0,0,1,2,0ZM32,20a6,6,0,0,1-5.95-5.3A25.77,25.77,0,0,1,38,14.7,6,6,0,0,1,32,20Zm17.84-2c-11.19-8-24.48-8-35.68,0a4,4,0,0,1-4.69-6.49,41,41,0,0,1,9.24-5L17.22,8.38A1,1,0,0,0,18,10c.65,0,.51,0,4.19-4.64A36.06,36.06,0,0,1,31.92,4l-2.7,3.38A1,1,0,0,0,30,9c.65,0,.46,0,4.41-4.91a36.18,36.18,0,0,1,7.26,1.23L39.22,8.38A1,1,0,0,0,40,10c.64,0,.53-.06,3.73-4.06a41.08,41.08,0,0,1,10.81,5.61A4,4,0,0,1,49.84,18ZM58.55,21c-2.83-2.7-2.24-1.34-1.16-3.27.5,0,.61.2,2.6,1.95Z"/></g></svg>