<svg xmlns="http://www.w3.org/2000/svg" viewBox="0 0 64 64"><defs><style>.cls-1{fill:#fafafa;}</style></defs><title>Steak</title><g id="Steak"><path class="cls-1" d="M32,0A32,32,0,1,0,64,32,32,32,0,0,0,32,0Zm0,62A30,30,0,1,1,62,32,30,30,0,0,1,32,62Z"/><path class="cls-1" d="M53,25.88C51.71,15.62,45.92,10.45,35.7,12.36A19.9,19.9,0,0,0,16.82,19H13a1,1,0,0,0-1,1c0,4.36-.07,4.17.19,4.55-3.11.81-2.8.22-1.41,5.53A1,1,0,0,0,12,30.8c.15,0-.16.57.1,3.09a6.49,6.49,0,0,0,3.77,9.89A19.89,19.89,0,0,0,26,51.06c0,.76-.17,1.76.81,1.93a8.62,8.62,0,0,0,5.26-1c5,0,2.52-1.54,5.41,2.46,1.16,1.61,4.75-1.88,5.91-6a19.93,19.93,0,0,0,8.44-14A20.66,20.66,0,0,0,53,25.88Zm-2,.24c.83,6.7-3.63,16.62-11.58,16.62-5.51,0-5.62-2.18-4.81-7,.74-4.38.7-5.37-2.13-9.18-1.7-2.28-3.3-4.44-2.14-7.93C30.81,17.23,31.88,14,40,14,47.85,14,50.32,20.59,51,26.12ZM23.19,27.88,30,29.73l-.52,1.93L19.29,28.89Zm3.7-1.07c.56-.46.37-.92.13-1.81,1,0,1.45.1,1.81-.47a19.63,19.63,0,0,0,2.05,3.19C31.09,28,31.69,28.11,26.89,26.81ZM31.32,14a7.66,7.66,0,0,0-3.15,5c-.29-.05,1,0-8.6,0A17.84,17.84,0,0,1,31.32,14ZM14,21H27v2h-.5l-.28-1.08A1,1,0,0,0,25,21.2C16.74,23.36,19.18,23,14,23Zm-2,5.67,12.58-3.28.5,1.94L12.46,28.61Zm3.46,3.24c.28.09.06,0,14.54,3.94a1,1,0,0,0,.76-.09c.49-.29.41-.4,1.44-4.21,1.18,1.94,1,2.92.49,5.82-.78,4.62-.11,4-.65,4.11a6.5,6.5,0,0,0-9.29-5.85A6.46,6.46,0,0,0,14,32a15.8,15.8,0,0,1,.1-1.78Zm6.52,12.33a6.47,6.47,0,0,0,1.71-6.83,4.49,4.49,0,1,1-1.71,6.83ZM13,37.5A4.5,4.5,0,1,1,17.5,42,4.51,4.51,0,0,1,13,37.5Zm5.53,6.41a6.06,6.06,0,0,0,1.75-.55A6.47,6.47,0,0,0,25.5,46c1.73,0,1-1,.64,3A18,18,0,0,1,18.53,43.91ZM29,45a6.46,6.46,0,0,0,2.63-3.34,2.71,2.71,0,0,1,1-.2,4.73,4.73,0,0,0,3.47,2.91c-.22,2.8-4.32,6.69-8.1,6.74A19.93,19.93,0,0,1,29,45Zm9.59,7.56a23,23,0,0,1-2.23-4,7.83,7.83,0,0,0,1.73-3.83,12.27,12.27,0,0,0,3.77-.2C42.09,47.24,40.82,50.89,38.59,52.53Zm5.28-7a9.89,9.89,0,0,0-.07-1.65,12,12,0,0,0,3.29-2.08A17.86,17.86,0,0,1,43.87,45.51Z"/><path class="cls-1" d="M34.21,25.21l.54-.55,2.09,2.09-1.05,1a1,1,0,0,0,1.42,1.42l1-1.05,2.09,2.09-1.05,1a1,1,0,0,0,1.42,1.42l1-1.05,2.09,2.09-2.09,2.09-3.29-3.3A1,1,0,0,0,37,34l3.3,3.29-2.05,2A1,1,0,0,0,39,41c.52,0,.52-.1,2.75-2.34.62.63.77.84,1.25.84a1,1,0,0,0,.71-1.71l-.55-.54,2.09-2.09c.35.35.54.59,1,.59A1,1,0,0,0,47,34l-.3-.29,1.05-1a1,1,0,0,0-1.42-1.42l-1,1.05-2.09-2.09,2.09-2.09,1,1.05a1,1,0,0,0,1.42-1.42l-1.05-1,2.05-2a1,1,0,0,0-1.42-1.42l-2,2.05-2.09-2.09,2.09-2.09c1.23,1.23,1.44,1.59,2,1.59A1,1,0,0,0,48,21c-1.39-1.39-1.35-1.23-1.25-1.33a1,1,0,0,0-1.42-1.42c-.1.1.06.15-1.33-1.25a1,1,0,0,0-1.42,1.42l1.3,1.29-2.09,2.09-2.09-2.09,1.55-1.54a1,1,0,0,0-1.42-1.42l-1.54,1.55L36,16a1,1,0,0,0-1.42,1.42l2.3,2.29-2.09,2.09-.29-.3A1,1,0,0,0,33,23l.3.29-.55.54A1,1,0,0,0,34.21,25.21Zm9.63,1.54-2.09,2.09-2.09-2.09,2.09-2.09Zm-5.59-5.59,2.09,2.09-2.09,2.09-2.09-2.09Z"/></g></svg>